<?xml version="1.0" encoding="UTF-8"?>
<svg width="320px" height="320px" viewBox="0 0 320 320" version="1.1" xmlns="http://www.w3.org/2000/svg" xmlns:xlink="http://www.w3.org/1999/xlink">
    <!-- Generator: Sketch 51.3 (57544) - http://www.bohemiancoding.com/sketch -->
    <title>Recers</title>
    <desc>Created with Sketch.</desc>
    <defs></defs>
    <g id="Recers" stroke="none" stroke-width="1" fill="none" fill-rule="evenodd">
        <g id="Group-6" transform="translate(210.621302, 56.183432)" fill="#000000">
            <circle id="Oval-2" cx="8.57988166" cy="43.7573964" r="8.57988166"></circle>
            <circle id="Oval-2" cx="25.739645" cy="25.739645" r="8.57988166"></circle>
            <circle id="Oval-2" cx="42.8994083" cy="8.57988166" r="8.57988166"></circle>
        </g>
        <g id="Group-4-Copy" transform="translate(160.428994, 159.571006) rotate(-225.000000) translate(-160.428994, -159.571006) translate(75.917160, 75.059172)" fill-rule="nonzero">
            <path d="M84.0139987,9.48067715 C42.6561234,9.48067715 9.00887574,43.2958 9.00887574,84.8600208 C9.00887574,126.424242 42.6561234,160.239364 84.0139987,160.239364 C125.371874,160.239364 159.019122,126.424242 159.019122,84.8600208 C159.019122,43.2958 125.371874,9.48067715 84.0139987,9.48067715 Z" id="Path-Copy-2" fill="#FF6100"></path>
            <path d="M84.3853361,0.498986695 C38.0599606,0.498986695 0.371337315,38.182242 0.371337315,84.5010193 C0.371337315,130.819797 38.0599606,168.503052 84.3853361,168.503052 C130.710712,168.503052 168.399335,130.819797 168.399335,84.5010193 C168.399335,38.182242 130.710712,0.498986695 84.3853361,0.498986695 Z M48.8703275,147.679599 C48.6887215,147.593617 29.5052422,139.259597 37.7306936,109.204971 C39.8245374,101.552583 45.5657769,94.5297873 51.6442038,87.0946175 C61.3926564,75.1685915 72.442336,61.6519008 72.7246456,41.0971408 C72.7325662,40.5207228 72.7286059,39.9527899 72.7133306,39.393342 C74.667434,39.1280426 76.6469962,38.9260984 78.6508856,38.7948629 L78.6508856,156.808951 C68.223532,155.98986 57.8623712,151.944187 48.8703275,147.679599 Z M13.0831928,97.8825149 C10.7206173,72.4369698 33.2884181,49.6715705 61.230286,41.7748138 C60.7069664,57.8749205 51.5910233,69.038423 42.763613,79.8370681 C36.1958116,87.8712827 29.4039728,96.1787161 26.667436,106.178069 C24.7138984,113.315696 24.0248139,119.526756 24.1611599,124.897229 C18.7638969,116.878288 14.0093269,107.855281 13.0831928,97.8825149 Z M64.4245152,20.2516263 C62.5767729,18.7197912 60.5621342,17.5822284 58.5067614,16.7416424 C64.8454338,14.31322 71.6072877,12.746879 78.6503199,12.1936535 L78.6503199,27.3083627 C75.8492875,27.4712757 73.0867262,27.7524138 70.3682934,28.1461203 C68.9878614,25.0354996 67.008865,22.3938195 64.4245152,20.2516263 Z M98.4023787,28.1455547 C95.683946,27.7518482 92.9213846,27.4707101 90.1203523,27.307797 L90.1203523,12.1930878 C97.1633844,12.7463134 103.925238,14.3126543 110.263911,16.7410767 C108.208538,17.5816627 106.193899,18.7192256 104.346723,20.2510606 C101.761807,22.3938195 99.7833765,25.0354996 98.4023787,28.1455547 Z M120.652793,147.250821 C111.218332,152.012067 101.207937,155.937819 90.1203523,156.808951 L90.1203523,38.7948629 C92.1242417,38.9260984 94.1038039,39.1280426 96.0579073,39.393342 C96.042632,39.9527899 96.0386717,40.5207228 96.0465922,41.0971408 C96.3289019,61.6519008 107.378581,75.1685915 117.127034,87.0946175 C123.205461,94.5297873 128.9467,101.552583 131.040544,109.204971 C139.148885,138.834779 121.390532,146.878044 120.652793,147.250821 Z M155.687479,97.4395951 C154.761345,107.412362 150.007341,116.878288 144.609512,124.897229 C144.745858,119.526756 144.056774,113.315696 142.103236,106.178069 C139.366699,96.1787161 132.575426,87.8712827 126.007059,79.8370681 C117.179649,69.038423 108.063706,57.8749205 107.540386,41.7748138 C135.482254,49.6715705 158.050055,71.9946157 155.687479,97.4395951 Z M150.874637,55.5070248 C140.785037,43.9984635 126.615807,35.1926747 110.187534,30.623756 C110.618636,30.0592171 111.101222,29.5529423 111.635856,29.1060628 C115.469384,25.9009751 123.423275,25.777659 127.395977,26.1289402 C137.582887,33.6517889 145.737054,43.7738924 150.874637,55.5070248 Z M41.3843125,26.1215865 C45.2879932,25.7804873 53.2571595,25.8902274 57.1036994,29.0794763 C57.6502147,29.5325781 58.1424179,30.0490351 58.5820063,30.6243217 C42.1542994,35.1926747 27.9850697,43.9990292 17.8960351,55.5070248 C23.0353157,43.7699327 31.192877,33.6461322 41.3843125,26.1215865 Z" id="Shape" fill="#000000" transform="translate(84.385336, 84.501019) rotate(90.000000) translate(-84.385336, -84.501019) "></path>
        </g>
        <g id="Wheelchair_symbol" transform="translate(0.000000, 11.000000)" fill="#FFFFFF" fill-rule="nonzero" stroke="#000000" stroke-width="12">
            <path d="M77.9372249,21.5304317 C85.5952166,16.693984 95.7168355,18.9956176 100.539346,26.6658784 C105.356812,34.3281166 103.064962,44.4520319 95.4149948,49.2834116 C61.7770157,70.5276661 40.7644953,109.12344 40.7644953,149.69179 C40.7644953,215.237054 94.1425651,268.734921 159.52742,268.734921 C219.011836,268.734921 270.365336,222.888997 277.347404,163.642275 C278.407607,154.645869 286.550651,148.208785 295.539889,149.272906 C304.526692,150.336739 310.946007,158.493822 309.886091,167.487801 C300.959226,243.237202 235.63821,301.546052 159.52742,301.546052 C76.0412118,301.546052 8,233.352134 8,149.69179 C8,97.8902556 34.75513,48.8023262 77.9372249,21.5304317 Z" id="Shape-Copy"></path>
        </g>
    </g>
</svg>